<?xml version="1.0" standalone="no"?><!DOCTYPE svg PUBLIC "-//W3C//DTD SVG 1.1//EN" "http://www.w3.org/Graphics/SVG/1.1/DTD/svg11.dtd"><svg height="32" node-id="1" sillyvg="true" template-height="32" template-width="32" version="1.1" viewBox="0 0 32 32" width="32" xmlns="http://www.w3.org/2000/svg" xmlns:xlink="http://www.w3.org/1999/xlink"><defs node-id="147"><linearGradient gradientUnits="objectBoundingBox" id="paint0_linear_7137_6158" node-id="76" spreadMethod="pad" x1="6.81209" x2="4.09448" y1="23.903" y2="3.71276"><stop offset="0" stop-color="#ec008c"></stop><stop offset="1" stop-color="#e81123"></stop></linearGradient><linearGradient gradientUnits="objectBoundingBox" id="paint1_linear_7137_6158" node-id="79" spreadMethod="pad" x1="3.81586" x2="0.0238809" y1="14.3594" y2="12.3593"><stop offset="0.151052" stop-color="#a11749" stop-opacity="0"></stop><stop offset="0.894692" stop-color="#a21749"></stop></linearGradient><linearGradient gradientUnits="objectBoundingBox" id="paint2_linear_7137_6158" node-id="82" spreadMethod="pad" x1="5.94086" x2="4.94086" y1="11.7969" y2="18.8281"><stop offset="0" stop-color="#db1136"></stop><stop offset="1" stop-color="#db1136" stop-opacity="0"></stop></linearGradient><linearGradient gradientUnits="objectBoundingBox" id="paint3_linear_7137_6158" node-id="85" spreadMethod="pad" x1="4.87836" x2="3.30023" y1="16.8906" y2="16.6719"><stop offset="0.151052" stop-color="#a11749" stop-opacity="0"></stop><stop offset="0.894692" stop-color="#a21749"></stop></linearGradient><linearGradient gradientUnits="objectBoundingBox" id="paint4_linear_7137_6158" node-id="88" spreadMethod="pad" x1="14.4953" x2="13.9836" y1="23.2281" y2="6.48432"><stop offset="0" stop-color="#ec008c"></stop><stop offset="1" stop-color="#e81123"></stop></linearGradient><linearGradient gradientUnits="objectBoundingBox" id="paint6_linear_7137_6158" node-id="94" spreadMethod="pad" x1="11.1519" x2="7.66615" y1="11.8226" y2="8.1017"><stop offset="0.151052" stop-color="#a11749" stop-opacity="0"></stop><stop offset="0.894692" stop-color="#a21749"></stop></linearGradient><linearGradient gradientUnits="objectBoundingBox" id="paint7_linear_7137_6158" node-id="97" spreadMethod="pad" x1="15.5659" x2="18.9409" y1="16.7968" y2="20.0468"><stop offset="0.151052" stop-color="#a11749" stop-opacity="0"></stop><stop offset="0.894692" stop-color="#a21749"></stop></linearGradient><linearGradient gradientUnits="objectBoundingBox" id="paint8_linear_7137_6158" node-id="100" spreadMethod="pad" x1="25.2958" x2="24.7841" y1="20.9156" y2="4.17182"><stop offset="0" stop-color="#ec008c"></stop><stop offset="1" stop-color="#e81123"></stop></linearGradient><linearGradient gradientUnits="objectBoundingBox" id="paint10_linear_7137_6158" node-id="106" spreadMethod="pad" x1="21.9524" x2="18.4666" y1="9.51011" y2="5.7892"><stop offset="0.151052" stop-color="#a11749" stop-opacity="0"></stop><stop offset="0.894692" stop-color="#a21749"></stop></linearGradient><linearGradient gradientUnits="objectBoundingBox" id="paint11_linear_7137_6158" node-id="109" spreadMethod="pad" x1="26.3663" x2="29.7413" y1="14.4843" y2="17.7343"><stop offset="0.151052" stop-color="#a11749" stop-opacity="0"></stop><stop offset="0.894692" stop-color="#a21749"></stop></linearGradient><linearGradient gradientUnits="objectBoundingBox" id="paint12_linear_7137_6158" node-id="112" spreadMethod="pad" x1="28.3663" x2="28.4913" y1="2.42181" y2="16.1406"><stop offset="0" stop-color="#ff6579" stop-opacity="0"></stop><stop offset="0.36721" stop-color="#ff6579"></stop><stop offset="1" stop-color="#ff596f" stop-opacity="0"></stop></linearGradient><linearGradient gradientUnits="objectBoundingBox" id="paint13_linear_7137_6158" node-id="116" spreadMethod="pad" x1="22.0159" x2="21.8909" y1="18.5284" y2="4.80961"><stop offset="0" stop-color="#ff6579" stop-opacity="0"></stop><stop offset="0.36721" stop-color="#ff6579"></stop><stop offset="1" stop-color="#ff596f" stop-opacity="0"></stop></linearGradient><linearGradient gradientUnits="objectBoundingBox" id="paint14_linear_7137_6158" node-id="120" spreadMethod="pad" x1="18.3159" x2="17.6284" y1="22.7968" y2="19.1718"><stop offset="0" stop-color="#ec008c"></stop><stop offset="0.828125" stop-color="#e81123"></stop></linearGradient><linearGradient gradientUnits="objectBoundingBox" id="paint15_linear_7137_6158" node-id="123" spreadMethod="pad" x1="17.7534" x2="16.5175" y1="26.2968" y2="21.5054"><stop offset="0" stop-color="#ec008c"></stop><stop offset="0.668308" stop-color="#e81123"></stop></linearGradient><linearGradient gradientUnits="objectBoundingBox" id="paint16_linear_7137_6158" node-id="126" spreadMethod="pad" x1="7.78461" x2="5.37836" y1="12.1719" y2="28.1094"><stop offset="0" stop-color="#ff6579"></stop><stop offset="1" stop-color="#ff596f" stop-opacity="0"></stop></linearGradient><linearGradient gradientUnits="objectBoundingBox" id="paint17_linear_7137_6158" node-id="129" spreadMethod="pad" x1="6.19022" x2="6.10479" y1="11.2251" y2="14.6401"><stop offset="0" stop-color="#ff47b4" stop-opacity="0"></stop><stop offset="1" stop-color="#ff47b4"></stop></linearGradient><linearGradient gradientUnits="objectBoundingBox" id="paint18_linear_7137_6158" node-id="132" spreadMethod="pad" x1="17.5659" x2="17.6909" y1="4.73431" y2="18.4531"><stop offset="0" stop-color="#ff6579" stop-opacity="0"></stop><stop offset="0.36721" stop-color="#ff6579"></stop><stop offset="1" stop-color="#ff596f" stop-opacity="0"></stop></linearGradient><linearGradient gradientUnits="objectBoundingBox" id="paint19_linear_7137_6158" node-id="136" spreadMethod="pad" x1="11.2154" x2="11.0904" y1="20.8409" y2="7.12211"><stop offset="0" stop-color="#ff6579" stop-opacity="0"></stop><stop offset="0.36721" stop-color="#ff6579"></stop><stop offset="1" stop-color="#ff596f" stop-opacity="0"></stop></linearGradient><linearGradient gradientUnits="objectBoundingBox" id="paint20_linear_7137_6158" node-id="140" spreadMethod="pad" x1="27.6072" x2="25.6886" y1="19.9022" y2="19.9607"><stop offset="0" stop-color="#ff5e84"></stop><stop offset="1" stop-color="#ff698d" stop-opacity="0"></stop></linearGradient><linearGradient gradientUnits="objectBoundingBox" id="paint21_linear_7137_6158" node-id="143" spreadMethod="pad" x1="25.3884" x2="23.4699" y1="24.1834" y2="24.242"><stop offset="0" stop-color="#ff5e84"></stop><stop offset="1" stop-color="#ff698d" stop-opacity="0"></stop></linearGradient><radialGradient cx="0" cy="0" fx="0" fy="0" gradientUnits="objectBoundingBox" id="paint5_radial_7137_6158" node-id="91" r="1" rev="2" spreadMethod="pad"><stop offset="0.416667" stop-color="#b50a47"></stop><stop offset="1" stop-color="#ce0d52" stop-opacity="0"></stop></radialGradient><radialGradient cx="0" cy="0" fx="0" fy="0" gradientUnits="objectBoundingBox" id="paint9_radial_7137_6158" node-id="103" r="1" rev="1" spreadMethod="pad"><stop offset="0.416667" stop-color="#b50a47"></stop><stop offset="1" stop-color="#ce0d52" stop-opacity="0"></stop></radialGradient><filter filterUnits="objectBoundingBox" height="10.7344" id="filter0_f_7137_6158" node-id="36" width="3.57812" x="3.40961" y="11.5625"><feFlood color-interpolation-filters="sRGB" flood-color="#000000" flood-opacity="0" result="BackgroundImageFix"></feFlood><feBlend color-interpolation-filters="sRGB" in="SourceGraphic" in2="BackgroundImageFix" mode="normal" result="shape"></feBlend><feGaussianBlur color-interpolation-filters="sRGB" in="shape" result="effect1_foregroundBlur_7137_6158" stdDeviation="0.125 0.125"></feGaussianBlur></filter><filter filterUnits="objectBoundingBox" height="11.212599" id="filter1_f_7137_6158" node-id="40" width="5.805729" x="23.8974" y="3.70923"><feFlood color-interpolation-filters="sRGB" flood-color="#000000" flood-opacity="0" result="BackgroundImageFix"></feFlood><feBlend color-interpolation-filters="sRGB" in="SourceGraphic" in2="BackgroundImageFix" mode="normal" result="shape"></feBlend><feGaussianBlur color-interpolation-filters="sRGB" in="shape" result="effect1_foregroundBlur_7137_6158" stdDeviation="0.5 0.5"></feGaussianBlur></filter><filter filterUnits="objectBoundingBox" height="9.34961" id="filter2_f_7137_6158" node-id="44" width="5.9373207" x="20.679" y="7.73413"><feFlood color-interpolation-filters="sRGB" flood-color="#000000" flood-opacity="0" result="BackgroundImageFix"></feFlood><feBlend color-interpolation-filters="sRGB" in="SourceGraphic" in2="BackgroundImageFix" mode="normal" result="shape"></feBlend><feGaussianBlur color-interpolation-filters="sRGB" in="shape" result="effect1_foregroundBlur_7137_6158" stdDeviation="0.5 0.5"></feGaussianBlur></filter><filter filterUnits="objectBoundingBox" height="3.5625" id="filter3_f_7137_6158" node-id="48" width="3.5625" x="5.55023" y="7.5625"><feFlood color-interpolation-filters="sRGB" flood-color="#000000" flood-opacity="0" result="BackgroundImageFix"></feFlood><feBlend color-interpolation-filters="sRGB" in="SourceGraphic" in2="BackgroundImageFix" mode="normal" result="shape"></feBlend><feGaussianBlur color-interpolation-filters="sRGB" in="shape" result="effect1_foregroundBlur_7137_6158" stdDeviation="0.5 0.5"></feGaussianBlur></filter><filter filterUnits="objectBoundingBox" height="13.781199" id="filter4_f_7137_6158" node-id="52" width="4.2813406" x="4.40956" y="9.10938"><feFlood color-interpolation-filters="sRGB" flood-color="#000000" flood-opacity="0" result="BackgroundImageFix"></feFlood><feBlend color-interpolation-filters="sRGB" in="SourceGraphic" in2="BackgroundImageFix" mode="normal" result="shape"></feBlend><feGaussianBlur color-interpolation-filters="sRGB" in="shape" result="effect1_foregroundBlur_7137_6158" stdDeviation="0.5 0.5"></feGaussianBlur></filter><filter filterUnits="objectBoundingBox" height="5.0625" id="filter5_f_7137_6158" node-id="56" width="4.68752" x="2.2846" y="9.49634"><feFlood color-interpolation-filters="sRGB" flood-color="#000000" flood-opacity="0" result="BackgroundImageFix"></feFlood><feBlend color-interpolation-filters="sRGB" in="SourceGraphic" in2="BackgroundImageFix" mode="normal" result="shape"></feBlend><feGaussianBlur color-interpolation-filters="sRGB" in="shape" result="effect1_foregroundBlur_7137_6158" stdDeviation="0.5 0.5"></feGaussianBlur></filter><filter filterUnits="objectBoundingBox" height="11.212599" id="filter6_f_7137_6158" node-id="60" width="5.8057194" x="13.097" y="6.02173"><feFlood color-interpolation-filters="sRGB" flood-color="#000000" flood-opacity="0" result="BackgroundImageFix"></feFlood><feBlend color-interpolation-filters="sRGB" in="SourceGraphic" in2="BackgroundImageFix" mode="normal" result="shape"></feBlend><feGaussianBlur color-interpolation-filters="sRGB" in="shape" result="effect1_foregroundBlur_7137_6158" stdDeviation="0.5 0.5"></feGaussianBlur></filter><filter filterUnits="objectBoundingBox" height="9.349609" id="filter7_f_7137_6158" node-id="64" width="5.9373198" x="9.87856" y="10.0466"><feFlood color-interpolation-filters="sRGB" flood-color="#000000" flood-opacity="0" result="BackgroundImageFix"></feFlood><feBlend color-interpolation-filters="sRGB" in="SourceGraphic" in2="BackgroundImageFix" mode="normal" result="shape"></feBlend><feGaussianBlur color-interpolation-filters="sRGB" in="shape" result="effect1_foregroundBlur_7137_6158" stdDeviation="0.5 0.5"></feGaussianBlur></filter><filter filterUnits="objectBoundingBox" height="1.55093" id="filter8_f_7137_6158" node-id="68" width="1.9871502" x="25.7598" y="18.9354"><feFlood color-interpolation-filters="sRGB" flood-color="#000000" flood-opacity="0" result="BackgroundImageFix"></feFlood><feBlend color-interpolation-filters="sRGB" in="SourceGraphic" in2="BackgroundImageFix" mode="normal" result="shape"></feBlend><feGaussianBlur color-interpolation-filters="sRGB" in="shape" result="effect1_foregroundBlur_7137_6158" stdDeviation="0.15 0.15"></feGaussianBlur></filter><filter filterUnits="objectBoundingBox" height="1.55093" id="filter9_f_7137_6158" node-id="72" width="1.9871502" x="23.541" y="23.2166"><feFlood color-interpolation-filters="sRGB" flood-color="#000000" flood-opacity="0" result="BackgroundImageFix"></feFlood><feBlend color-interpolation-filters="sRGB" in="SourceGraphic" in2="BackgroundImageFix" mode="normal" result="shape"></feBlend><feGaussianBlur color-interpolation-filters="sRGB" in="shape" result="effect1_foregroundBlur_7137_6158" stdDeviation="0.15 0.15"></feGaussianBlur></filter></defs><path d="M 4.95 23.84 C 6.00 23.68 6.71 22.41 6.86 21.59 C 7.40 17.94 8.12 13.20 8.46 9.97 C 8.55 9.13 8.16 8.43 7.73 8.10 C 6.88 7.47 6.01 7.81 5.26 8.54 C 4.44 9.33 3.83 10.06 2.50 11.67 C 2.02 12.25 1.69 13.58 2.50 14.20 C 3.07 14.61 3.89 14.32 4.39 13.97 C 4.00 16.68 3.48 20.28 3.30 22.35 C 3.30 23.41 3.83 24.02 4.95 23.84 Z" fill="url(#paint0_linear_7137_6158)" fill-rule="nonzero" node-id="370" stroke="none" target-height="16.5461" target-width="6.86003" target-x="1.69374" target-y="7.4696"></path><path d="M 4.95 23.84 C 6.00 23.68 6.71 22.41 6.86 21.59 C 7.40 17.94 8.12 13.20 8.46 9.97 C 8.55 9.13 8.16 8.43 7.73 8.10 C 6.88 7.47 6.01 7.81 5.26 8.54 C 4.44 9.33 3.83 10.06 2.50 11.67 C 2.02 12.25 1.69 13.58 2.50 14.20 C 3.07 14.61 3.89 14.32 4.39 13.97 C 4.00 16.68 3.48 20.28 3.30 22.35 C 3.30 23.41 3.83 24.02 4.95 23.84 Z" fill="url(#paint1_linear_7137_6158)" fill-rule="nonzero" node-id="372" stroke="none" target-height="16.5461" target-width="6.86003" target-x="1.69374" target-y="7.4696"></path><g node-id="450"><path d="M 6.74 11.81 L 4.66 13.81 L 3.66 21.92 L 5.52 22.05 L 6.74 11.81 Z" fill="url(#paint2_linear_7137_6158)" fill-rule="nonzero" filter="url(#filter0_f_7137_6158)" group-id="1" node-id="376" stroke="none" target-height="10.234399" target-width="3.07812" target-x="3.65961" target-y="11.812501"></path></g><path d="M 5.41 23.70 C 5.26 23.77 5.11 23.82 4.95 23.84 C 3.83 24.02 3.30 23.41 3.30 22.35 C 3.46 20.49 3.90 17.40 4.27 14.82 C 4.30 14.55 4.34 14.29 4.38 14.03 L 4.41 13.98 L 7.03 12.23 L 5.41 23.70 Z" fill="url(#paint3_linear_7137_6158)" fill-rule="nonzero" node-id="379" stroke="none" target-height="11.7812" target-width="3.7343798" target-x="3.30023" target-y="12.2344"></path><path d="M 9.04 15.38 C 8.93 16.59 8.82 18.14 9.75 19.21 C 10.61 20.18 11.43 20.39 12.99 20.30 C 14.51 20.02 15.82 19.03 16.43 18.42 C 17.32 17.53 18.17 16.09 18.41 14.60 C 18.59 13.62 18.69 12.48 18.85 11.48 C 19.16 9.67 19.02 8.30 18.29 7.31 C 17.76 6.48 16.65 5.97 15.38 6.05 C 14.06 6.13 12.47 6.88 11.35 8.20 C 10.37 9.34 9.72 10.66 9.46 12.28 C 9.34 13.20 9.18 14.39 9.04 15.38 Z M 12.65 15.30 C 12.83 13.86 12.97 12.70 13.18 11.21 C 13.32 10.39 14.07 9.92 14.51 9.92 C 15.15 9.88 15.42 10.37 15.32 11.21 C 15.17 12.55 15.02 13.83 14.80 15.10 C 14.66 15.92 14.09 16.44 13.45 16.47 C 12.92 16.51 12.60 16.14 12.65 15.30 Z" fill="url(#paint4_linear_7137_6158)" fill-rule="nonzero" node-id="381" stroke="none" target-height="14.41968" target-width="10.3416395" target-x="8.81796" target-y="5.97092"></path><path d="M 9.04 15.38 C 8.93 16.59 8.82 18.14 9.75 19.21 C 10.61 20.18 11.43 20.39 12.99 20.30 C 14.51 20.02 15.82 19.03 16.43 18.42 C 17.32 17.53 18.17 16.09 18.41 14.60 C 18.59 13.62 18.69 12.48 18.85 11.48 C 19.16 9.67 19.02 8.30 18.29 7.31 C 17.76 6.48 16.65 5.97 15.38 6.05 C 14.06 6.13 12.47 6.88 11.35 8.20 C 10.37 9.34 9.72 10.66 9.46 12.28 C 9.34 13.20 9.18 14.39 9.04 15.38 Z M 12.65 15.30 C 12.83 13.86 12.97 12.70 13.18 11.21 C 13.32 10.39 14.07 9.92 14.51 9.92 C 15.15 9.88 15.42 10.37 15.32 11.21 C 15.17 12.55 15.02 13.83 14.80 15.10 C 14.66 15.92 14.09 16.44 13.45 16.47 C 12.92 16.51 12.60 16.14 12.65 15.30 Z" fill="url(#paint5_radial_7137_6158)" fill-rule="nonzero" node-id="383" stroke="none" target-height="14.41968" target-width="10.3416395" target-x="8.81796" target-y="5.97092"></path><path d="M 9.04 15.38 C 8.93 16.59 8.82 18.14 9.75 19.21 C 10.61 20.18 11.43 20.39 12.99 20.30 C 14.51 20.02 15.82 19.03 16.43 18.42 C 17.32 17.53 18.17 16.09 18.41 14.60 C 18.59 13.62 18.69 12.48 18.85 11.48 C 19.16 9.67 19.02 8.30 18.29 7.31 C 17.76 6.48 16.65 5.97 15.38 6.05 C 14.06 6.13 12.47 6.88 11.35 8.20 C 10.37 9.34 9.72 10.66 9.46 12.28 C 9.34 13.20 9.18 14.39 9.04 15.38 Z M 12.65 15.30 C 12.83 13.86 12.97 12.70 13.18 11.21 C 13.32 10.39 14.07 9.92 14.51 9.92 C 15.15 9.88 15.42 10.37 15.32 11.21 C 15.17 12.55 15.02 13.83 14.80 15.10 C 14.66 15.92 14.09 16.44 13.45 16.47 C 12.92 16.51 12.60 16.14 12.65 15.30 Z" fill="url(#paint6_linear_7137_6158)" fill-rule="nonzero" node-id="385" stroke="none" target-height="14.41968" target-width="10.3416395" target-x="8.81796" target-y="5.97092"></path><path d="M 9.04 15.38 C 8.93 16.59 8.82 18.14 9.75 19.21 C 10.61 20.18 11.43 20.39 12.99 20.30 C 14.51 20.02 15.82 19.03 16.43 18.42 C 17.32 17.53 18.17 16.09 18.41 14.60 C 18.59 13.62 18.69 12.48 18.85 11.48 C 19.16 9.67 19.02 8.30 18.29 7.31 C 17.76 6.48 16.65 5.97 15.38 6.05 C 14.06 6.13 12.47 6.88 11.35 8.20 C 10.37 9.34 9.72 10.66 9.46 12.28 C 9.34 13.20 9.18 14.39 9.04 15.38 Z M 12.65 15.30 C 12.83 13.86 12.97 12.70 13.18 11.21 C 13.32 10.39 14.07 9.92 14.51 9.92 C 15.15 9.88 15.42 10.37 15.32 11.21 C 15.17 12.55 15.02 13.83 14.80 15.10 C 14.66 15.92 14.09 16.44 13.45 16.47 C 12.92 16.51 12.60 16.14 12.65 15.30 Z" fill="url(#paint7_linear_7137_6158)" fill-rule="nonzero" node-id="387" stroke="none" target-height="14.41968" target-width="10.3416395" target-x="8.81796" target-y="5.97092"></path><path d="M 19.84 13.07 C 19.73 14.27 19.62 15.83 20.55 16.90 C 21.41 17.87 22.23 18.08 23.79 17.98 C 25.31 17.70 26.62 16.72 27.23 16.11 C 28.12 15.22 28.97 13.78 29.21 12.29 C 29.39 11.31 29.49 10.17 29.66 9.17 C 29.96 7.36 29.82 5.99 29.09 5.00 C 28.56 4.17 27.45 3.66 26.18 3.73 C 24.86 3.81 23.27 4.57 22.15 5.88 C 21.17 7.02 20.52 8.35 20.26 9.97 C 20.14 10.88 19.98 12.08 19.84 13.07 Z M 23.45 12.98 C 23.63 11.55 23.77 10.39 23.98 8.90 C 24.12 8.08 24.87 7.61 25.31 7.61 C 25.95 7.57 26.22 8.06 26.12 8.90 C 25.97 10.23 25.82 11.52 25.60 12.79 C 25.46 13.61 24.89 14.12 24.25 14.16 C 23.72 14.19 23.40 13.83 23.45 12.98 Z" fill="url(#paint8_linear_7137_6158)" fill-rule="nonzero" node-id="389" stroke="none" target-height="14.41968" target-width="10.3415985" target-x="19.6184" target-y="3.65842"></path><path d="M 19.84 13.07 C 19.73 14.27 19.62 15.83 20.55 16.90 C 21.41 17.87 22.23 18.08 23.79 17.98 C 25.31 17.70 26.62 16.72 27.23 16.11 C 28.12 15.22 28.97 13.78 29.21 12.29 C 29.39 11.31 29.49 10.17 29.66 9.17 C 29.96 7.36 29.82 5.99 29.09 5.00 C 28.56 4.17 27.45 3.66 26.18 3.73 C 24.86 3.81 23.27 4.57 22.15 5.88 C 21.17 7.02 20.52 8.35 20.26 9.97 C 20.14 10.88 19.98 12.08 19.84 13.07 Z M 23.45 12.98 C 23.63 11.55 23.77 10.39 23.98 8.90 C 24.12 8.08 24.87 7.61 25.31 7.61 C 25.95 7.57 26.22 8.06 26.12 8.90 C 25.97 10.23 25.82 11.52 25.60 12.79 C 25.46 13.61 24.89 14.12 24.25 14.16 C 23.72 14.19 23.40 13.83 23.45 12.98 Z" fill="url(#paint9_radial_7137_6158)" fill-rule="nonzero" node-id="391" stroke="none" target-height="14.41968" target-width="10.3415985" target-x="19.6184" target-y="3.65842"></path><path d="M 19.84 13.07 C 19.73 14.27 19.62 15.83 20.55 16.90 C 21.41 17.87 22.23 18.08 23.79 17.98 C 25.31 17.70 26.62 16.72 27.23 16.11 C 28.12 15.22 28.97 13.78 29.21 12.29 C 29.39 11.31 29.49 10.17 29.66 9.17 C 29.96 7.36 29.82 5.99 29.09 5.00 C 28.56 4.17 27.45 3.66 26.18 3.73 C 24.86 3.81 23.27 4.57 22.15 5.88 C 21.17 7.02 20.52 8.35 20.26 9.97 C 20.14 10.88 19.98 12.08 19.84 13.07 Z M 23.45 12.98 C 23.63 11.55 23.77 10.39 23.98 8.90 C 24.12 8.08 24.87 7.61 25.31 7.61 C 25.95 7.57 26.22 8.06 26.12 8.90 C 25.97 10.23 25.82 11.52 25.60 12.79 C 25.46 13.61 24.89 14.12 24.25 14.16 C 23.72 14.19 23.40 13.83 23.45 12.98 Z" fill="url(#paint10_linear_7137_6158)" fill-rule="nonzero" node-id="393" stroke="none" target-height="14.41968" target-width="10.3415985" target-x="19.6184" target-y="3.65842"></path><path d="M 19.84 13.07 C 19.73 14.27 19.62 15.83 20.55 16.90 C 21.41 17.87 22.23 18.08 23.79 17.98 C 25.31 17.70 26.62 16.72 27.23 16.11 C 28.12 15.22 28.97 13.78 29.21 12.29 C 29.39 11.31 29.49 10.17 29.66 9.17 C 29.96 7.36 29.82 5.99 29.09 5.00 C 28.56 4.17 27.45 3.66 26.18 3.73 C 24.86 3.81 23.27 4.57 22.15 5.88 C 21.17 7.02 20.52 8.35 20.26 9.97 C 20.14 10.88 19.98 12.08 19.84 13.07 Z M 23.45 12.98 C 23.63 11.55 23.77 10.39 23.98 8.90 C 24.12 8.08 24.87 7.61 25.31 7.61 C 25.95 7.57 26.22 8.06 26.12 8.90 C 25.97 10.23 25.82 11.52 25.60 12.79 C 25.46 13.61 24.89 14.12 24.25 14.16 C 23.72 14.19 23.40 13.83 23.45 12.98 Z" fill="url(#paint11_linear_7137_6158)" fill-rule="nonzero" node-id="395" stroke="none" target-height="14.41968" target-width="10.3415985" target-x="19.6184" target-y="3.65842"></path><g node-id="451"><path d="M 25.40 5.36 C 25.78 5.20 26.74 5.03 27.46 5.61 C 28.37 6.33 28.24 7.36 28.12 8.02 C 28.02 8.54 27.72 11.87 27.46 13.42" fill="none" filter="url(#filter1_f_7137_6158)" group-id="2" node-id="399" stroke="url(#paint12_linear_7137_6158)" stroke-linecap="round" stroke-width="1" target-height="8.387489" target-width="2.9686985" target-x="25.397602" target-y="5.03431"></path></g><g node-id="452"><path d="M 25.12 14.95 C 24.80 15.34 23.65 15.92 22.92 15.34 C 22.02 14.62 22.14 13.59 22.27 12.93 C 22.37 12.41 22.66 10.79 22.92 9.23" fill="none" filter="url(#filter2_f_7137_6158)" group-id="3" node-id="404" stroke="url(#paint13_linear_7137_6158)" stroke-linecap="round" stroke-width="1" target-height="6.6816406" target-width="3.100401" target-x="22.0159" target-y="9.23426"></path></g><path d="M 27.67 19.63 C 27.79 20.20 27.43 20.75 26.86 20.87 L 18.22 22.67 L 11.64 24.13 C 11.07 24.26 10.51 23.90 10.38 23.34 C 10.26 22.77 10.62 22.21 11.18 22.08 L 17.78 20.61 L 26.43 18.82 C 27.00 18.70 27.55 19.06 27.67 19.63 Z" fill="url(#paint14_linear_7137_6158)" fill-rule="evenodd" node-id="407" stroke="none" target-height="5.562702" target-width="17.5315" target-x="10.2586" target-y="18.6976"></path><path d="M 25.53 23.84 C 25.65 24.41 25.29 24.97 24.72 25.09 L 15.93 26.96 L 9.34 28.40 C 8.77 28.52 8.21 28.17 8.09 27.60 C 7.96 27.03 8.32 26.47 8.89 26.35 L 15.49 24.91 L 24.28 23.04 C 24.85 22.91 25.41 23.28 25.53 23.84 Z" fill="url(#paint15_linear_7137_6158)" fill-rule="evenodd" node-id="409" stroke="none" target-height="5.609701" target-width="17.68789" target-x="7.9633102" target-y="22.9146"></path><g node-id="453"><path d="M 8.11 9.34 C 8.11 9.78 7.76 10.12 7.33 10.12 C 6.90 10.12 6.55 9.78 6.55 9.34 C 6.55 8.91 6.90 8.56 7.33 8.56 C 7.76 8.56 8.11 8.91 8.11 9.34 Z" fill="#ff596f" fill-rule="nonzero" filter="url(#filter3_f_7137_6158)" group-id="4" node-id="413" stroke="none" target-height="1.5625" target-width="1.5625005" target-x="6.5502295" target-y="8.5625"></path></g><g node-id="454"><path d="M 5.78 21.52 L 7.32 10.48" fill="none" filter="url(#filter4_f_7137_6158)" group-id="5" node-id="418" stroke="url(#paint16_linear_7137_6158)" stroke-linecap="round" stroke-width="0.75" target-height="11.0312" target-width="1.53125" target-x="5.78461" target-y="10.4844"></path></g><g node-id="455"><path d="M 3.66 13.18 L 5.60 10.87" fill="none" filter="url(#filter5_f_7137_6158)" group-id="6" node-id="423" stroke="url(#paint17_linear_7137_6158)" stroke-linecap="round" stroke-width="0.75" target-height="2.312501" target-width="1.9374998" target-x="3.65961" target-y="10.8713"></path></g><g node-id="456"><path d="M 14.60 7.67 C 14.98 7.52 15.93 7.35 16.66 7.92 C 17.57 8.64 17.44 9.67 17.32 10.33 C 17.22 10.85 16.92 14.18 16.66 15.73" fill="none" filter="url(#filter6_f_7137_6158)" group-id="7" node-id="428" stroke="url(#paint18_linear_7137_6158)" stroke-linecap="round" stroke-width="1" target-height="8.387491" target-width="2.9687996" target-x="14.597101" target-y="7.3468094"></path></g><g node-id="457"><path d="M 14.32 17.27 C 14.00 17.65 12.85 18.23 12.12 17.65 C 11.22 16.93 11.34 15.90 11.47 15.25 C 11.57 14.72 11.86 13.10 12.12 11.55" fill="none" filter="url(#filter7_f_7137_6158)" group-id="8" node-id="433" stroke="url(#paint19_linear_7137_6158)" stroke-linecap="round" stroke-width="1" target-height="6.6815996" target-width="3.1005" target-x="11.2154" target-y="11.5468"></path></g><g node-id="458"><g node-id="460"><path d="M 27.44 19.56 C 27.50 19.81 27.23 20.08 26.85 20.16 C 26.48 20.25 26.12 20.11 26.07 19.86 C 26.01 19.62 26.27 19.35 26.65 19.26 C 27.03 19.18 27.38 19.31 27.44 19.56 Z" fill="url(#paint20_linear_7137_6158)" fill-rule="nonzero" filter="url(#filter8_f_7137_6158)" group-id="9,11" node-id="440" stroke="none" target-height="1.0693493" target-width="1.483532" target-x="26.011635" target-y="19.176224"></path></g></g><path d="M 25.22 23.84 C 25.28 24.09 25.01 24.36 24.64 24.44 C 24.26 24.53 23.90 24.39 23.85 24.15 C 23.79 23.90 24.05 23.63 24.43 23.54 C 24.81 23.46 25.17 23.59 25.22 23.84 Z" fill="url(#paint21_linear_7137_6158)" fill-rule="nonzero" filter="url(#filter9_f_7137_6158)" group-id="10,12" node-id="448" stroke="none" target-height="1.0693493" target-width="1.4835358" target-x="23.792831" target-y="23.457426"></path></svg>